<svg width="335" height="90" viewBox="0 0 335 90" fill="none" xmlns="http://www.w3.org/2000/svg">
<path d="M107.664 72.8432L128.515 16.2707H137.89L158.579 72.8432H149.528L144.679 59.0233H121.565L116.716 72.8432H107.664ZM123.989 52.2346H142.254L133.122 26.4537L123.989 52.2346Z" fill="black"/>
<path d="M159.68 72.8432V32.7575H167.277L167.923 39.7887C169.162 37.3102 170.967 35.3706 173.338 33.9698C175.763 32.5151 178.537 31.7877 181.662 31.7877C186.511 31.7877 190.31 33.2963 193.058 36.3135C195.859 39.3307 197.26 43.8296 197.26 49.8101V72.8432H188.774V50.6991C188.774 42.9406 185.595 39.0613 179.238 39.0613C176.059 39.0613 173.419 40.1928 171.318 42.4557C169.27 44.7186 168.247 47.9513 168.247 52.1538V72.8432H159.68Z" fill="black"/>
<path d="M200.884 72.8432V14.6543H209.451V49.3252L224.806 32.7575H235.07L218.018 50.9415L237.576 72.8432H226.746L209.451 52.3154V72.8432H200.884Z" fill="black"/>
<path d="M250.457 73.813C247.063 73.813 244.261 73.2473 242.052 72.1158C239.843 70.9844 238.2 69.5027 237.122 67.6708C236.045 65.7851 235.506 63.7377 235.506 61.5287C235.506 57.6494 237.015 54.5783 240.032 52.3154C243.049 50.0525 247.359 48.9211 252.963 48.9211H263.469V48.1937C263.469 45.0688 262.607 42.725 260.883 41.1626C259.213 39.6001 257.03 38.8188 254.337 38.8188C251.966 38.8188 249.892 39.4115 248.114 40.5968C246.389 41.7283 245.339 43.4255 244.962 45.6884H236.395C236.664 42.7789 237.634 40.3005 239.304 38.2531C241.029 36.1519 243.184 34.5624 245.77 33.4849C248.41 32.3534 251.292 31.7877 254.417 31.7877C260.021 31.7877 264.358 33.2694 267.429 36.2327C270.5 39.1421 272.036 43.1291 272.036 48.1937V72.8432H264.6L263.873 65.9737C262.742 68.1827 261.098 70.0415 258.943 71.5501C256.788 73.0587 253.959 73.813 250.457 73.813ZM252.154 66.8627C254.471 66.8627 256.411 66.3239 257.973 65.2463C259.59 64.1148 260.829 62.6332 261.691 60.8013C262.607 58.9694 263.173 56.949 263.388 54.74H253.852C250.457 54.74 248.033 55.3326 246.578 56.518C245.177 57.7033 244.477 59.185 244.477 60.963C244.477 62.7948 245.15 64.2495 246.497 65.3271C247.898 66.3508 249.784 66.8627 252.154 66.8627Z" fill="black"/>
<path d="M275.559 72.8432V32.7575H283.237L283.964 40.3544C285.365 37.7143 287.304 35.64 289.783 34.1314C292.315 32.5689 295.359 31.7877 298.915 31.7877V40.7585H296.571C294.201 40.7585 292.073 41.1626 290.187 41.9707C288.355 42.725 286.873 44.0451 285.742 45.9308C284.664 47.7627 284.126 50.3219 284.126 53.6085V72.8432H275.559Z" fill="black"/>
<path d="M313.372 73.813C309.978 73.813 307.176 73.2473 304.967 72.1158C302.758 70.9844 301.115 69.5027 300.037 67.6708C298.96 65.7851 298.421 63.7377 298.421 61.5287C298.421 57.6494 299.929 54.5783 302.947 52.3154C305.964 50.0525 310.274 48.9211 315.878 48.9211H326.384V48.1937C326.384 45.0688 325.522 42.725 323.798 41.1626C322.127 39.6001 319.945 38.8188 317.251 38.8188C314.881 38.8188 312.806 39.4115 311.028 40.5968C309.304 41.7283 308.254 43.4255 307.877 45.6884H299.31C299.579 42.7789 300.549 40.3005 302.219 38.2531C303.943 36.1519 306.099 34.5624 308.685 33.4849C311.325 32.3534 314.207 31.7877 317.332 31.7877C322.936 31.7877 327.273 33.2694 330.344 36.2327C333.415 39.1421 334.951 43.1291 334.951 48.1937V72.8432H327.515L326.788 65.9737C325.656 68.1827 324.013 70.0415 321.858 71.5501C319.703 73.0587 316.874 73.813 313.372 73.813ZM315.069 66.8627C317.386 66.8627 319.326 66.3239 320.888 65.2463C322.505 64.1148 323.744 62.6332 324.606 60.8013C325.522 58.9694 326.088 56.949 326.303 54.74H316.767C313.372 54.74 310.948 55.3326 309.493 56.518C308.092 57.7033 307.392 59.185 307.392 60.963C307.392 62.7948 308.065 64.2495 309.412 65.3271C310.813 66.3508 312.699 66.8627 315.069 66.8627Z" fill="black"/>
<path fill-rule="evenodd" clip-rule="evenodd" d="M62.1206 48.1247H55.1229L35.2655 84.0699L38.7643 90H83.245L87.2422 86.0028V66.3155H79.2477V82.0055H45.5392L58.6217 58.3239L66.5575 72.6889L73.5552 68.8231L62.1206 48.1247Z" fill="black"/>
<path fill-rule="evenodd" clip-rule="evenodd" d="M0 3.99725L3.99725 0H83.3026L87.2999 3.99725V41.1314H79.3054V7.9945H7.99449V81.8636H26.5622V89.8581H3.99725L0 85.8609V3.99725Z" fill="black"/>
<path fill-rule="evenodd" clip-rule="evenodd" d="M79.3078 59.7351V47.7734H87.3023V59.7351H79.3078Z" fill="black"/>
</svg>
